HIERARCHY
ROOT Hips
{
  OFFSET 100.954 94.3043 27.911
  CHANNELS 6 Xposition Yposition Zposition Zrotation Xrotation Yrotation
  JOINT ToSpine
  {
    OFFSET -2.69724 7.43032 -0.144315
    CHANNELS 3 Zrotation Xrotation Yrotation
    JOINT Spine
    {
      OFFSET -0.0310711 10.7595 1.96963
      CHANNELS 3 Zrotation Xrotation Yrotation
      JOINT Spine1
      {
        OFFSET 13.1342 3.43533 0.764692
        CHANNELS 3 Zrotation Xrotation Yrotation
        JOINT Neck
        {
          OFFSET 29.8703 7.82586 -0.130764
          CHANNELS 3 Zrotation Xrotation Yrotation
          JOINT Head
          {
            OFFSET 9.52751 0.295786 -0.907742
            CHANNELS 3 Zrotation Xrotation Yrotation
            End Site
            {
              OFFSET 16.4037 0.713936 2.7358
            }
          }
        }
        JOINT LeftShoulder
        {
          OFFSET 27.5574 4.95586 2.47156
          CHANNELS 3 Zrotation Xrotation Yrotation
          JOINT LeftArm
          {
            OFFSET 1.20734 -0.998971 20.1238
            CHANNELS 3 Zrotation Xrotation Yrotation
            JOINT LeftForeArm
            {
              OFFSET 26.8049 -0.0536703 -0.155908
              CHANNELS 3 Zrotation Xrotation Yrotation
              JOINT LeftHand
              {
                OFFSET 26.6817 0 0.320147
                CHANNELS 3 Zrotation Xrotation Yrotation
                End Site
                {
                  OFFSET 18.6119 0 0.382219
                }
              }
            }
          }
        }
        JOINT RightShoulder
        {
          OFFSET 27.5927 4.71444 -2.65209
          CHANNELS 3 Zrotation Xrotation Yrotation
          JOINT RightArm
          {
            OFFSET 2.83739 -1.17114 -18.7564
            CHANNELS 3 Zrotation Xrotation Yrotation
            JOINT RightForeArm
            {
              OFFSET 28.839 -0.0548439 1.22491
              CHANNELS 3 Zrotation Xrotation Yrotation
              JOINT RightHand
              {
                OFFSET 26.5114 0 -0.101894
                CHANNELS 3 Zrotation Xrotation Yrotation
                End Site
                {
                  OFFSET 18.2168 0 0
                }
              }
            }
          }
        }
      }
    }
  }
  JOINT LeftUpLeg
  {
    OFFSET -4.76168 -1.9167 -10.2353
    CHANNELS 3 Zrotation Xrotation Yrotation
    JOINT LeftLeg
    {
      OFFSET 2.55951 -42.0585 -8.02213
      CHANNELS 3 Zrotation Xrotation Yrotation
      JOINT LeftFoot
      {
        OFFSET 3.16357 -42.5282 -3.95426
        CHANNELS 3 Zrotation Xrotation Yrotation
        JOINT LeftToeBase
        {
          OFFSET 0.346054 -6.02161 12.8035
          CHANNELS 3 Zrotation Xrotation Yrotation
          End Site
          {
            OFFSET 0.134235 -1.35082 5.13018
          }
        }
      }
    }
  }
  JOINT RightUpLeg
  {
    OFFSET -4.94151 -1.41743 10.6446
    CHANNELS 3 Zrotation Xrotation Yrotation
    JOINT RightLeg
    {
      OFFSET -2.56294 -42.0364 -7.94377
      CHANNELS 3 Zrotation Xrotation Yrotation
      JOINT RightFoot
      {
        OFFSET -3.0952 -42.555 -4.02241
        CHANNELS 3 Zrotation Xrotation Yrotation
        JOINT RightToeBase
        {
          OFFSET -0.0828122 -6.13587 12.8035
          CHANNELS 3 Zrotation Xrotation Yrotation
          End Site
          {
            OFFSET -0.131328 -1.35082 5.13018
          }
        }
      }
    }
  }
}
MOTION
Frames:	10
Frame Time:	0.0333333
101.632 94.7335 27.337 -45.066 -64.0579 -138.159 -70.1915 0 88.8779 81.5011 71.7882 6.27375 6.73229 23.1777 -1.52044 -130.502 14.9358 -169.146 -147.572 49.4903 -174.96 0.516191 -13.0283 -29.0066 -130.926 29.0671 -56.6159 15.8756 -8.2147 -115.795 -1.33922 0.0383757 -2.17943 -1.03846 6.51679 30.0546 -53.1958 -40.0392 132.826 12.5212 5.5583 113.195 1.47618 0.0273917 1.27449 -42.7247 13.1314 99.0676 -1.54307 34.5619 -0.648644 -2.17377 -5.65921 -0.361561 0.387722 -0.61426 -0.621403 -47.8036 -6.18817 90.0549 2.22399 38.1792 5.69564 -2.9654 -12.2657 1.17198 2.12113 -15.1405 -9.08928 
102.008 94.7555 27.3862 -46.7237 -63.3133 -140.03 -70.1915 0 88.8779 82.4178 72.1291 5.58864 6.72861 23.6001 -2.09037 -130.274 14.8897 -168.608 -147.746 49.4317 -173.926 0.51705 -13.0187 -29.0426 -130.767 27.2794 -57.8725 16.1123 -8.16618 -115.312 -1.26019 0.0388671 -2.2614 -1.06959 6.86786 29.6055 -52.7881 -40.4704 133.97 12.2556 5.58346 113.745 1.46244 0.0273736 1.51511 -43.0032 12.9311 99.1698 -1.48876 34.697 -0.097074 -2.01457 -5.58902 -0.367466 0.521819 -1.37069 0.53037 -47.4025 -6.54951 91.3872 2.47858 38.6808 7.10832 -4.1611 -12.6565 1.21562 2.2693 -18.4685 -10.782 
102.109 94.7147 27.4504 -47.6165 -62.792 -140.978 -70.1915 0 88.8779 81.7352 72.3444 6.54467 7.04422 23.9359 -2.59458 -129.854 15.1193 -167.982 -147.791 49.5751 -172.998 0.52603 -13.029 -28.6266 -130.85 26.3653 -59.1233 14.6906 -7.66947 -116.082 -1.2239 0.0390956 -2.22322 -1.06187 7.06484 29.0143 -52.3911 -40.2513 135.364 12.272 5.81908 114.598 1.41107 0.0273135 1.68951 -42.9298 13.1546 99.4179 -1.51381 35.2107 -0.100886 -2.20082 -5.94793 -0.387868 0.311375 -1.2304 1.31978 -47.4665 -6.30885 93.0558 1.86942 38.1405 2.5398 -3.68857 -14.3447 1.28633 2.11684 -13.8377 -10.4042 
102.004 94.5247 27.4781 -47.9288 -62.6008 -141.522 -70.1915 0 88.8779 80.3003 72.3214 8.1548 7.39471 24.0865 -3.25898 -128.908 15.4948 -167.221 -148.147 49.833 -171.472 0.592376 -12.7614 -27.893 -131.47 26.1897 -60.205 14.3217 -7.74486 -116.916 -1.14961 0.0395634 -2.14771 -1.04378 7.25349 28.3238 -52.0455 -40.1849 137.077 12.7627 6.17792 115.03 1.3432 0.0272347 1.85539 -42.5842 13.0669 99.3415 -1.52436 36.0549 0.204335 -1.89258 -6.44675 -0.459575 0.0571024 -0.94187 1.94635 -47.9965 -6.35914 93.6645 1.01356 36.674 1.82114 -2.03193 -12.9916 1.19584 1.61373 -9.6267 -5.72609 
101.781 94.3291 27.4567 -48.0221 -62.548 -141.948 -70.1915 0 88.8779 79.9278 72.2875 8.83492 7.42017 24.246 -4.18674 -128.61 15.6475 -166.569 -149.434 50.019 -169.891 0.688963 -12.2533 -27.5153 -131.54 25.9939 -62.0944 14.4401 -8.05527 -117.636 -1.0201 0.040379 -2.00506 -1.0145 7.32541 27.7718 -51.3622 -40.1402 138.642 12.1673 5.98186 115.392 1.05619 0.0269075 2.07194 -42.2887 13.0516 99.4994 -1.53607 36.7731 0.441417 -1.28174 -5.91144 -0.455543 0.739803 -1.99592 0.947567 -48.2605 -6.78095 93.3177 0.48627 36.1516 1.91772 -1.37129 -13.304 1.20647 1.1078 -8.33521 -1.17127 
101.553 94.3097 27.3845 -48.5063 -62.6704 -142.579 -70.1915 0 88.8779 81.8177 72.3272 7.35293 7.09823 24.4432 -4.93325 -128.295 15.7639 -166.17 -149.624 49.997 -169.729 0.763178 -11.8091 -27.6695 -132.13 26.1654 -63.2887 13.1548 -7.60162 -118.56 -1.0347 0.0402919 -1.88277 -1.03694 7.45286 27.8068 -51.3302 -39.426 139.01 11.4646 5.60522 115.289 0.97984 0.0268212 2.08145 -42.653 13.1427 99.9088 -1.59095 36.6885 -0.0999532 -1.01202 -5.73955 -0.461287 0.589026 -2.02343 1.87582 -48.3642 -7.53621 91.4966 0.119361 36.0252 0.370528 -2.60204 -13.0347 1.20744 0.637282 -9.58705 6.45376 
101.32 94.4454 27.3323 -49.0446 -62.4642 -142.539 -70.1915 0 88.8779 83.745 72.3852 6.54973 6.62991 24.6395 -5.40801 -127.253 15.9237 -166.682 -148.785 50.0242 -170.242 0.744887 -11.8982 -27.8494 -132.077 27.0298 -62.9895 12.7422 -7.44416 -118.849 -1.09112 0.0399393 -1.86597 -1.08422 7.46688 28.4268 -51.8195 -38.5276 137.997 11.3342 5.40719 114.754 0.940434 0.0267786 1.96483 -42.8443 14.0094 99.9527 -1.61608 36.4595 -0.436148 -0.880558 -5.5648 -0.456474 0.627273 -2.19669 2.1325 -48.8689 -6.8244 90.5266 -0.281525 35.3572 3.51913 -1.54581 -12.8685 1.17987 0.87274 -8.44425 1.57727 
101.074 94.4724 27.3048 -48.5183 -62.4749 -141.92 -70.1915 0 88.8779 81.4186 72.2783 8.69116 7.12185 24.4395 -4.69339 -127.766 16.1831 -165.957 -149.736 50.3155 -169.371 0.658076 -12.3145 -28.5552 -132.492 27.7579 -61.6847 13.329 -7.69846 -118.538 -1.14092 0.0396256 -1.92771 -1.03707 7.4704 27.7591 -51.2257 -38.7033 138.326 12.0537 5.46111 113.616 1.0852 0.0269414 2.0024 -42.7688 14.1358 99.7318 -1.59451 36.1298 -0.419288 -0.970968 -5.20056 -0.417265 0.852391 -2.54155 1.79317 -48.9096 -6.80384 89.7687 -0.407519 35.0982 3.79845 -1.58828 -12.885 1.18169 0.839399 -8.51833 2.06268 
100.898 94.5256 27.2683 -47.2741 -62.7182 -140.648 -70.1915 0 88.8779 79.321 71.8794 10.5611 7.59826 24.0571 -4.47283 -128.504 15.7414 -166.312 -149.96 50.1441 -169.097 0.668043 -12.2593 -28.5593 -132.491 29.0861 -60.735 13.921 -7.88367 -118.028 -1.19854 0.0392664 -1.88595 -1.02272 7.32807 27.8672 -51.1371 -38.7955 137.978 12.9055 5.75394 113.24 1.16328 0.0270258 2.22679 -42.5291 13.9822 99.5001 -1.54774 35.6086 -0.32218 -1.12006 -4.98989 -0.386058 0.907206 -2.483 1.31031 -48.8623 -7.33854 87.9719 -0.529238 34.9228 5.71871 -2.52564 -12.6908 1.18647 1.04154 -8.97851 0.462066 
100.754 94.535 27.2201 -46.8994 -62.8373 -140.111 -70.1915 0 88.8779 80.1792 71.7038 10.0404 7.44816 23.8927 -4.55761 -129.313 15.5035 -166.251 -150.219 50.0442 -169.046 0.636279 -12.3728 -29.1099 -132.07 29.445 -60.434 14.9739 -8.21516 -117.207 -1.18153 0.039369 -1.99855 -1.07675 7.41119 28.4254 -51.4888 -38.6563 137.115 12.5858 5.68852 113.541 1.25717 0.0271352 2.01999 -42.4402 14.1688 99.4089 -1.52856 35.473 -0.219676 -0.754093 -4.88718 -0.408564 0.874765 -2.27329 0.922592 -49.0047 -7.14206 87.6812 -0.613888 34.693 5.77195 -2.80861 -12.4606 1.17913 1.14051 -9.58302 0.192014 
